#!OML:ASF I:\Actors\actors\Patient Classification 1\Patient 1\Session 1\Subject1.ASF
:FULLY-SPECIFIED
:DEGREES
1080
root 0.831237 17.5045 8.70774 5.44864 -4.99369 -9.47661
lowerback -1.85979 1.76674 5.28954
upperback -9.95296 2.9408 5.09648
thorax -9.55059 1.26866 2.30227
lowerneck -8.20041 -3.08046 1.31058
upperneck 33.4421 -5.17547 0.763951
head 12.3846 -2.0695 -0.598859
rclavicle 1.76918e-014 5.60573e-014
rhumerus 13.1314 2.61406 -111.176
rradius 37.8166
rwrist 79.3312
rhand -39.0239 -71.1876
rfingers 7.12502
rthumb -12.0267 100.822
lclavicle 1.76918e-014 5.60573e-014
lhumerus 6.90534 -28.3094 78.2202
lradius 56.5505
lwrist 38.0356
lhand -43.7277 -20.0397
lfingers 7.12502
lthumb -16.559 9.2738
rfemur -3.63766 18.307 25.6486
rtibia 6.69597
rfoot -11.8405 -20.0303
rtoes -2.12651
lfemur 3.02079 -29.3537 -9.49935
ltibia 1.36836
lfoot -15.256 39.9145
ltoes 3.20554
1081
root 0.818669 17.5022 8.72621 5.18767 -3.41257 -9.49739
lowerback -1.98294 1.1685 5.0052
upperback -9.71327 2.10463 5.15443
thorax -9.20941 0.889847 2.56872
lowerneck -8.66194 -3.2385 1.25021
upperneck 33.2241 -5.28107 0.402533
head 12.3773 -2.17156 -0.747308
rclavicle -1.51076e-014 5.84427e-014
rhumerus 10.8776 15.7839 -103.556
rradius 46.9113
rwrist 67.1726
rhand -38.0848 -73.7752
rfingers 7.12502
rthumb -11.121 103.46
lclavicle -1.51076e-014 5.84427e-014
lhumerus 7.45823 -27.8386 77.9748
lradius 56.6445
lwrist 37.9232
lhand -43.7064 -20.5025
lfingers 7.12502
lthumb -16.5385 8.81269
rfemur -3.01345 18.0817 25.893
rtibia 6.36988
rfoot -12.2843 -21.2854
rtoes -1.09105
lfemur 2.57803 -29.4217 -9.0859
ltibia 1.52243
lfoot -14.1739 38.5934
ltoes 1.10366
1082
root 0.806455 17.4951 8.74285 4.87315 -1.97142 -9.43831
lowerback -1.77361 0.643072 4.70584
upperback -9.6073 1.40151 5.14455
thorax -9.20786 0.568345 2.76172
lowerneck -8.92364 -3.46205 1.08783
upperneck 33.0333 -5.43964 -0.00961302
head 12.34 -2.31829 -0.899449
rclavicle -2.78299e-015 -8.74653e-015
rhumerus 7.9825 18.005 -103.133
rradius 53.243
rwrist 65.029
rhand -37.4882 -73.8593
rfingers 7.12502
rthumb -10.5456 103.575
lclavicle -2.78299e-015 -8.74653e-015
lhumerus 7.65906 -27.2427 78.0179
lradius 56.7381
lwrist 37.8535
lhand -43.808 -20.626
lfingers 7.12502
lthumb -16.6364 8.68103
rfemur -2.43878 17.8039 26.0399
rtibia 6.2232
rfoot -12.8495 -22.3065
rtoes 0.261063
lfemur 2.27744 -29.4232 -8.87924
ltibia 1.60253
lfoot -12.8483 37.4459
ltoes -1.45331
1083
root 0.794794 17.4866 8.75759 4.62245 -0.807039 -9.41167
lowerback -1.63118 0.23007 4.42939
upperback -9.48518 0.844224 5.17399
thorax -9.14683 0.318873 2.97766
lowerneck -9.03117 -3.57468 1.04271
upperneck 32.8644 -5.45269 -0.431415
head 12.2765 -2.38643 -1.05229
rclavicle -1.11319e-014 2.94201e-014
rhumerus 5.17637 19.5761 -103.158
rradius 59.1327
rwrist 62.032
rhand -37.342 -73.8471
rfingers 7.12502
rthumb -10.4046 103.57
lclavicle -1.11319e-014 2.94201e-014
lhumerus 7.75077 -26.5686 78.1491
lradius 56.8745
lwrist 37.958
lhand -43.9388 -20.6362
lfingers 7.12502
lthumb -16.7623 8.66021
rfemur -2.05225 17.518 26.1798
rtibia 6.23863
rfoot -13.3793 -23.0393
rtoes 1.37915
lfemur 2.00769 -29.3244 -8.68994
ltibia 1.64605
lfoot -11.4411 36.5661
ltoes -4.44451
1084
root 0.785881 17.4802 8.76914 4.49088 0.0049046 -9.52449
lowerback -1.53408 -0.0333584 4.32938
upperback -9.41065 0.495341 5.23784
thorax -9.11422 0.15901 3.12188
lowerneck -8.971 -3.54316 1.19871
upperneck 32.8529 -5.34831 -0.703107
head 12.2442 -2.35527 -1.16608
rclavicle -1.03368e-014 -1.47101e-014
rhumerus 2.41153 20.3706 -103.498
rradius 64.4947
rwrist 59.4304
rhand -37.3205 -73.5707
rfingers 7.12502
rthumb -10.3838 103.294
lclavicle -1.03368e-014 -1.47101e-014
lhumerus 7.71874 -26.0523 78.2385
lradius 57.0709
lwrist 38.2657
lhand -43.9875 -20.5431
lfingers 7.12502
lthumb -16.8091 8.74936
rfemur -1.96825 17.1401 26.397
rtibia 6.48259
rfoot -13.7614 -23.3805
rtoes 1.83924
lfemur 1.81911 -29.4074 -8.40582
ltibia 1.68576
lfoot -11.0841 36.0076
ltoes -5.42284
